<svg width="53" height="61" viewBox="0 0 53 61" fill="none" xmlns="http://www.w3.org/2000/svg">
<path d="M11.3637 18.8564C13.3044 9.33441 22.7452 3.15889 32.4503 5.06298C33.5654 5.28177 34.6356 5.59771 35.6533 6.00003C26.5333 5.03152 18.0061 11.0404 16.1727 20.0359L12.3739 38.6749C10.6561 47.1027 15.3897 55.3274 23.2295 58.4265C22.6958 58.3699 22.16 58.2893 21.6235 58.184C11.9184 56.2799 5.62414 47.0173 7.56485 37.4953L11.3637 18.8564Z" fill="#E8E0D5" fill-opacity="0.8"/>
<path d="M4.56156 15.8359C6.69462 5.17049 17.0711 -1.74663 27.738 0.386119C28.9637 0.631178 30.1399 0.985058 31.2585 1.43569C21.2346 0.350871 11.8623 7.08134 9.84719 17.1571L5.6718 38.0343C3.78384 47.4743 8.98652 56.6866 17.6033 60.1579C17.0167 60.0944 16.4279 60.0041 15.8382 59.8862C5.17121 57.7535 -1.74688 47.3785 0.386175 36.7131L4.56156 15.8359Z" fill="#E8E0D5" fill-opacity="0.6"/>
<path fill-rule="evenodd" clip-rule="evenodd" d="M39.4173 8.58188C30.2693 6.78709 21.3442 12.7372 19.4825 21.8717L16.0192 38.8641C14.1574 47.9986 20.0641 56.8586 29.212 58.6534C38.3599 60.4481 47.285 54.4981 49.1468 45.3635L52.6101 28.3712C54.4718 19.2366 48.5652 10.3767 39.4173 8.58188ZM37.8059 16.4879C35.5807 16.0513 33.4098 17.4986 32.9569 19.7206L31.7322 25.7294C31.2794 27.9514 32.7161 30.1065 34.9413 30.5431C37.1665 30.9796 39.3374 29.5323 39.7903 27.3104L41.015 21.3015C41.4678 19.0796 40.0311 16.9245 37.8059 16.4879Z" fill="#E8E0D5"/>
</svg>
