<svg width="45" height="45" viewBox="0 0 45 45" fill="none" xmlns="http://www.w3.org/2000/svg">
<circle cx="22.5" cy="22.5" r="21" stroke="#E8E0D5" stroke-width="3"/>
<path d="M10 24.4259L20.9693 6H24.1818V18.75H34V21.578L23.1258 40H19.8182V27.25H10V24.4259ZM13.9399 24.0625H23.0909V33.6928L30.0723 21.9375H20.9091V12.4264L13.9399 24.0625Z" fill="#E8E0D5"/>
<path d="M10 24.4259L20.9693 6H24.1818V18.75H34V21.578L23.1258 40H19.8182V27.25H10V24.4259ZM13.9399 24.0625H23.0909V33.6928L30.0723 21.9375H20.9091V12.4264L13.9399 24.0625Z" stroke="#E8E0D5"/>
<path d="M20.948 12.2133L24.7899 26.8929L11.262 23.8937L20.948 12.2133Z" fill="#E8E0D5"/>
<path d="M22.9374 33.858L17.7489 19.5986L31.4969 21.3286L22.9374 33.858Z" fill="#E8E0D5"/>
</svg>
