<svg width="60" height="60" viewBox="0 0 60 60" fill="none" xmlns="http://www.w3.org/2000/svg">
<path d="M10 40C4.4768 40 0 35.5229 0 30C0 24.4771 4.4768 20 10 20C15.5232 20 20 24.4771 20 30C20 35.5229 15.5232 40 10 40Z" fill="#E8E0D5"/>
<path d="M30 60C24.4768 60 20 55.5232 20 50C20 44.4768 24.4768 40 30 40C35.5232 40 40 44.4768 40 50C40 55.5232 35.5232 60 30 60Z" fill="#E8E0D5"/>
<path d="M30 20C24.4768 20 20 15.5229 20 10C20 4.47712 24.4768 0 30 0C35.5232 0 40 4.47712 40 10C40 15.5229 35.5232 20 30 20Z" fill="#E8E0D5"/>
<path d="M50 40C44.4768 40 40 35.5232 40 30C40 24.4768 44.4768 20 50 20C55.5232 20 60 24.4768 60 30C60 35.5232 55.5232 40 50 40Z" fill="#E8E0D5"/>
</svg>
