<svg width="59" height="57" viewBox="0 0 59 57" fill="none" xmlns="http://www.w3.org/2000/svg">
<path d="M38.2875 28.55C36.2508 28.55 34.6 26.955 34.6 24.9875C34.6 23.02 36.2508 21.425 38.2875 21.425C40.3242 21.425 41.975 23.02 41.975 24.9875C41.975 26.955 40.3242 28.55 38.2875 28.55Z" fill="#E8E0D5"/>
<path d="M44.1875 35.675C42.1508 35.675 40.5 34.0801 40.5 32.1125C40.5 30.1448 42.1508 28.55 44.1875 28.55C46.2242 28.55 47.875 30.1448 47.875 32.1125C47.875 34.0801 46.2242 35.675 44.1875 35.675Z" fill="#E8E0D5"/>
<path fill-rule="evenodd" clip-rule="evenodd" d="M42.775 11.4H16.225C8.07882 11.4 1.47501 17.7799 1.47501 25.65V31.35C1.47501 39.22 8.07882 45.6 16.225 45.6H42.775C50.9211 45.6 57.525 39.22 57.525 31.35V25.65C57.525 17.7799 50.9211 11.4 42.775 11.4ZM7.37501 25.65C7.37501 20.928 11.3373 17.1 16.225 17.1H42.775C47.6629 17.1 51.625 20.928 51.625 25.65V31.35C51.625 36.0722 47.6629 39.9 42.775 39.9H16.225C11.3373 39.9 7.37501 36.0722 7.37501 31.35V25.65Z" fill="#E8E0D5"/>
<path d="M13.95 31.4C12.3208 31.4 11 30.124 11 28.55C11 26.976 12.3208 25.7 13.95 25.7H25.75C27.3792 25.7 28.7 26.976 28.7 28.55C28.7 30.124 27.3792 31.4 25.75 31.4H13.95Z" fill="#E8E0D5"/>
<path d="M22.8 34.25C22.8 35.8241 21.4792 37.1 19.85 37.1C18.2208 37.1 16.9 35.8241 16.9 34.25V22.85C16.9 21.276 18.2208 20 19.85 20C21.4792 20 22.8 21.276 22.8 22.85V34.25Z" fill="#E8E0D5"/>
</svg>
